<?xml version="1.0" standalone="no"?>
<!DOCTYPE svg PUBLIC "-//W3C//DTD SVG 20010904//EN"
 "http://www.w3.org/TR/2001/REC-SVG-20010904/DTD/svg10.dtd">
<svg version="1.0" xmlns="http://www.w3.org/2000/svg"
 width="100.000000pt" height="100.000000pt" viewBox="0 0 100.000000 100.000000"
 preserveAspectRatio="xMidYMid meet">
<metadata>
Created by potrace 1.14, written by Peter Selinger 2001-2017
</metadata>
<g transform="translate(0.000000,100.000000) scale(0.100000,-0.100000)"
fill="#000000" stroke="none">
<path d="M5 972 c-3 -8 -5 -229 -5 -493 l0 -479 492 2 491 3 2 22 c1 13 -3 23
-9 23 -6 0 -4 5 4 10 8 5 11 10 5 10 -11 0 -12 121 -1 139 4 6 1 11 -6 11 -8
1 -6 6 6 15 20 15 20 15 0 15 -16 0 -17 2 -4 10 8 5 10 10 4 10 -6 0 -10 10
-9 22 2 14 8 22 16 20 8 -1 6 4 -5 13 -13 10 -15 15 -6 15 9 0 7 5 -6 15 -15
12 -16 14 -2 9 14 -5 16 -1 13 16 -2 13 -7 25 -10 28 -2 3 0 11 6 19 6 7 8 13
3 13 -5 0 -9 18 -9 40 0 22 5 40 10 40 7 0 7 3 0 8 -5 4 -10 16 -10 27 0 11 5
23 10 27 7 5 6 8 -1 8 -10 0 -9 118 1 129 3 2 -1 11 -8 19 -10 13 -9 14 1 8
11 -7 12 -4 3 11 -7 14 -7 23 1 31 7 7 8 12 2 12 -11 0 -11 90 0 108 4 7 3 12
-1 12 -5 0 -9 9 -9 19 0 11 4 17 9 14 5 -3 3 4 -4 15 -9 14 -17 18 -24 12 -7
-6 -16 -5 -24 3 -11 9 -14 9 -18 0 -3 -7 -9 -13 -14 -13 -6 0 -8 4 -5 8 6 10
-51 9 -60 -1 -4 -4 -14 -1 -22 6 -12 9 -16 9 -19 0 -3 -7 -9 -13 -14 -13 -6 0
-8 4 -5 8 6 10 -51 9 -60 -1 -4 -4 -14 -1 -22 6 -12 9 -16 9 -19 0 -3 -7 -9
-13 -14 -13 -6 0 -8 4 -5 8 6 10 -51 9 -60 -1 -4 -4 -14 -1 -22 6 -12 9 -16 9
-19 0 -3 -7 -9 -13 -14 -13 -6 0 -8 4 -5 8 6 10 -51 9 -60 -1 -4 -4 -14 -1
-22 6 -12 9 -16 9 -19 0 -3 -7 -9 -13 -14 -13 -6 0 -8 4 -5 8 6 10 -51 9 -60
-1 -4 -4 -14 -1 -22 6 -12 9 -16 9 -19 0 -3 -7 -9 -13 -14 -13 -6 0 -8 4 -5 8
6 10 -51 9 -60 -1 -4 -4 -14 -1 -22 6 -12 9 -16 9 -19 0 -3 -7 -9 -13 -14 -13
-6 0 -8 4 -5 8 6 10 -51 9 -60 -1 -4 -4 -14 -1 -22 6 -12 9 -16 9 -19 0 -3 -7
-9 -13 -14 -13 -6 0 -8 3 -6 8 3 4 -6 7 -19 7 -13 0 -26 -6 -29 -13z m312
-145 c17 -1 19 -5 12 -24 -7 -18 -5 -21 8 -16 11 4 14 3 9 -5 -4 -7 -15 -12
-24 -13 -11 0 -12 -2 -4 -6 6 -2 9 -10 5 -16 -4 -7 -8 -16 -8 -22 0 -5 -8 -9
-18 -7 -9 2 -17 -1 -16 -5 3 -13 -13 -43 -20 -38 -4 2 -14 -5 -22 -16 -29 -42
-59 -70 -69 -64 -6 4 -9 3 -8 -2 4 -11 -43 -57 -61 -61 -23 -5 -51 9 -51 24 0
10 -5 12 -13 8 -7 -5 -6 0 3 11 9 11 10 16 3 11 -8 -4 -13 -2 -13 7 0 8 7 17
15 21 8 3 14 9 13 13 -2 5 7 19 19 32 12 13 20 27 18 31 -3 4 3 7 13 6 9 0 16
5 15 12 -2 6 2 12 8 12 7 0 37 26 68 58 31 32 62 57 69 54 6 -2 12 2 12 10 0
11 2 11 9 0 4 -7 17 -14 28 -15z m193 3 c10 0 22 -9 25 -20 7 -23 -2 -60 -16
-60 -5 0 -9 -7 -9 -16 0 -8 -4 -12 -10 -9 -5 3 -10 1 -10 -5 0 -6 -5 -8 -12
-4 -8 5 -7 0 2 -11 8 -10 10 -16 5 -13 -14 9 -48 -18 -40 -31 6 -10 -16 -16
-39 -12 -5 1 -3 -5 4 -14 7 -8 15 -13 18 -10 3 3 11 0 17 -5 9 -8 14 -6 19 5
4 11 2 14 -6 9 -7 -4 -8 -3 -4 4 10 17 27 15 42 -5 13 -17 14 -17 8 2 -5 18
-5 18 6 2 6 -9 15 -15 21 -12 5 3 6 0 3 -8 -3 -8 0 -18 5 -22 6 -3 9 -11 5
-16 -3 -5 -9 -7 -14 -4 -4 3 -6 -5 -2 -17 4 -17 2 -20 -12 -15 -9 4 -15 3 -12
-2 10 -16 -44 -9 -56 8 -11 14 -11 14 2 6 9 -5 8 -2 -3 7 -13 12 -16 24 -12
39 5 14 3 19 -3 15 -6 -3 -14 -2 -17 4 -5 8 -11 7 -21 -1 -7 -6 -11 -15 -8
-20 3 -5 -2 -6 -11 -3 -10 4 -15 2 -13 -7 2 -8 -3 -13 -9 -12 -7 2 -13 -5 -13
-15 0 -14 -2 -15 -10 -2 -9 13 -10 13 -11 0 -1 -8 -1 -17 -1 -20 0 -3 -11 -6
-24 -6 -13 -1 -24 3 -24 8 0 7 -5 6 -13 -1 -10 -8 -14 -7 -15 2 -3 44 -3 54 4
76 5 19 4 22 -6 16 -9 -6 -11 -4 -6 4 5 7 14 10 21 7 12 -4 30 20 27 36 -1 4
6 4 16 1 9 -3 14 -2 10 2 -5 5 2 15 13 23 17 12 18 16 8 23 -10 7 -8 8 8 7 12
-2 21 2 20 7 -1 6 -6 9 -10 7 -5 -1 -6 2 -2 8 4 7 13 7 27 -1 11 -6 18 -7 16
-2 -6 11 39 53 48 44 4 -3 4 2 1 12 -5 12 -1 17 13 17 10 0 22 5 26 12 6 9 9
9 12 0 2 -7 12 -12 22 -12z m169 -387 c-8 -9 -6 -12 8 -12 35 -1 53 -4 48 -9
-3 -3 0 -11 7 -19 9 -11 7 -12 -7 -7 -15 6 -16 4 -6 -14 9 -18 8 -23 -8 -31
-10 -6 -22 -7 -26 -3 -5 4 -5 -1 -2 -11 6 -15 4 -16 -13 -7 -16 9 -19 8 -14
-7 5 -16 4 -16 -10 1 -9 11 -16 15 -16 8 0 -6 -7 -9 -15 -6 -8 4 -23 0 -32 -7
-15 -12 -16 -12 -10 4 3 9 4 17 0 17 -3 0 -12 -8 -20 -17 -12 -15 -14 -15 -10
-2 4 13 -2 15 -39 11 -29 -3 -44 0 -44 8 0 6 -4 9 -9 6 -5 -3 -16 5 -25 19
-10 15 -12 26 -6 30 6 4 8 10 5 15 -5 8 20 21 39 19 5 0 12 5 16 11 5 8 13 9
21 4 20 -12 39 -14 39 -3 0 6 6 7 13 2 17 -11 38 -13 32 -3 -3 5 3 7 12 5 10
-2 18 -4 18 -5 0 -1 8 -3 18 -5 11 -2 17 1 14 9 -3 6 3 12 14 12 13 0 15 -4 8
-13z m216 -3 c-3 -5 3 -10 14 -10 12 0 21 -7 21 -16 0 -8 5 -12 10 -9 12 7 12
3 4 -19 -3 -9 -11 -13 -18 -9 -6 4 -4 -2 4 -12 14 -17 13 -18 -4 -12 -14 6
-17 4 -12 -10 6 -14 5 -15 -5 -6 -9 9 -17 9 -32 2 -15 -9 -18 -8 -12 2 6 9 3
11 -9 6 -9 -4 -14 -3 -11 2 3 5 1 13 -5 16 -8 5 -7 12 2 23 10 12 10 14 1 8
-15 -8 -16 -5 -7 19 5 13 8 14 15 3 7 -10 9 -9 9 5 0 10 4 16 9 12 5 -3 12 -1
16 5 3 5 8 10 11 10 3 0 2 -4 -1 -10z m-384 -208 c8 2 15 -7 17 -19 2 -13 8
-23 14 -23 7 0 6 -5 -2 -15 -6 -8 -9 -18 -6 -23 3 -6 -2 -9 -12 -8 -10 0 -16
-5 -14 -14 3 -12 1 -12 -9 -3 -6 6 -17 9 -24 7 -6 -3 -18 3 -26 13 -12 16 -12
17 1 8 9 -5 5 -1 -7 11 l-24 20 21 27 c12 15 26 25 31 22 5 -4 9 0 9 7 0 11 2
11 9 0 4 -7 14 -12 22 -10z m214 8 c5 8 12 6 26 -6 14 -13 18 -14 14 -3 -5 14
35 16 113 5 24 -4 31 -2 25 7 -4 7 0 7 10 -2 9 -7 17 -22 17 -32 0 -11 4 -19
9 -19 5 0 7 -9 4 -20 -3 -11 -11 -20 -19 -20 -9 0 -11 -6 -7 -17 7 -17 6 -17
-11 0 -21 20 -27 22 -21 5 4 -10 -20 -13 -101 -11 -58 1 -109 5 -112 9 -4 4
-1 4 7 -1 10 -6 12 -4 7 4 -6 9 -11 9 -24 -1 -13 -11 -15 -10 -10 10 4 12 3
20 -2 17 -4 -3 -14 3 -21 12 -10 12 -10 14 -1 9 12 -7 15 0 15 37 0 14 2 15
15 5 13 -11 14 -11 7 1 -6 11 -4 13 8 8 9 -3 19 -1 23 5 4 7 9 6 14 -2 6 -9 9
-9 15 0z"/>
</g>
</svg>
