<svg xmlns="http://www.w3.org/2000/svg" width="20" height="20" viewBox="0 0 20 20">
    <g data-name="그룹 1520">
        <path data-name="사각형 936" style="fill:none" d="M0 0h20v20H0z"/>
    </g>
    <g data-name="그룹 1521">
        <path data-name="패스 2277" d="M10.509 2C7.255 2 4 2.407 4 5.255v7.73a2.819 2.819 0 0 0 .814 1.985v1.676a.816.816 0 0 0 .814.814h.814a.816.816 0 0 0 .814-.814v-.814h6.509v.814a.816.816 0 0 0 .814.814h.814a.816.816 0 0 0 .814-.814V14.97a2.819 2.819 0 0 0 .814-1.985v-7.73C17.019 2.407 14.106 2 10.509 2zM7.662 13.392a1.221 1.221 0 1 1 1.221-1.221 1.219 1.219 0 0 1-1.221 1.221zm5.7 0a1.221 1.221 0 1 1 1.221-1.221 1.219 1.219 0 0 1-1.226 1.221zm2.034-4.882H5.627V6.068h9.764z" transform="translate(-.745 -.373)" style="fill:#606060"/>
    </g>
</svg>
