<svg xmlns="http://www.w3.org/2000/svg" width="20" height="20" viewBox="0 0 20 20">
    <path data-name="사각형 956" style="fill:none" d="M0 0h20v20H0z"/>
    <g data-name="그룹 1530">
        <path data-name="패스 2307" d="M9.795 11.51a8.661 8.661 0 0 1 3.461.735 2.436 2.436 0 0 1 1.437 2.228v1.322H4.9v-1.314a2.419 2.419 0 0 1 1.437-2.228 8.522 8.522 0 0 1 3.458-.743zm-6.53.2a1.632 1.632 0 1 0-1.632-1.632 1.637 1.637 0 0 0 1.632 1.636zm.922.9a5.7 5.7 0 0 0-.922-.082A5.673 5.673 0 0 0 1 13a1.641 1.641 0 0 0-1 1.51v1.281h3.673v-1.31a3.672 3.672 0 0 1 .514-1.87zm12.137-.9a1.632 1.632 0 1 0-1.632-1.632 1.637 1.637 0 0 0 1.633 1.636zm3.265 2.8a1.641 1.641 0 0 0-1-1.51 5.549 5.549 0 0 0-3.191-.392 3.672 3.672 0 0 1 .514 1.869v1.314h3.678zM9.795 6a2.449 2.449 0 1 1-2.449 2.449A2.445 2.445 0 0 1 9.795 6z" transform="translate(0 -1.103)" style="fill:#606060"/>
    </g>
</svg>
