<svg width="37" height="36" viewBox="0 0 37 36" fill="none" xmlns="http://www.w3.org/2000/svg">
<rect x="0.363281" width="36" height="36" fill="#F1F1F1"/>
<path fill-rule="evenodd" clip-rule="evenodd" d="M12.8946 20.1289C11.9406 20.1289 11.1673 20.9022 11.1673 21.8562C11.1673 22.8101 11.9406 23.5835 12.8946 23.5835C13.8485 23.5835 14.6219 22.8101 14.6219 21.8562C14.6219 20.9022 13.8485 20.1289 12.8946 20.1289ZM9.53125 24.9466C9.53125 24.3943 9.97897 23.9466 10.5312 23.9466H15.2585C15.8108 23.9466 16.2585 24.3943 16.2585 24.9466V26.9466C16.2585 27.4989 15.8108 27.9466 15.2585 27.9466H14.4401L14.4401 31.1291C14.4401 31.6814 13.9924 32.1291 13.4401 32.1291H12.3492C11.7969 32.1291 11.3492 31.6814 11.3492 31.1291L11.3492 27.9466H10.5312C9.97896 27.9466 9.53125 27.4989 9.53125 26.9466V24.9466Z" fill="#606060"/>
<path fill-rule="evenodd" clip-rule="evenodd" d="M23.8301 20.1289C22.8762 20.1289 22.1029 20.9022 22.1029 21.8562C22.1029 22.8101 22.8762 23.5835 23.8301 23.5835C24.7841 23.5835 25.5574 22.8101 25.5574 21.8562C25.5574 20.9022 24.7841 20.1289 23.8301 20.1289ZM20.4668 24.9466C20.4668 24.3943 20.9145 23.9466 21.4668 23.9466H26.1941C26.7464 23.9466 27.1941 24.3943 27.1941 24.9466V26.9466C27.1941 27.4989 26.7464 27.9466 26.1941 27.9466H25.3757L25.3757 31.1291C25.3757 31.6814 24.9279 32.1291 24.3757 32.1291H23.2847C22.7325 32.1291 22.2847 31.6814 22.2847 31.1291L22.2847 27.9466H21.4668C20.9145 27.9466 20.4668 27.4989 20.4668 26.9466V24.9466Z" fill="#606060"/>
<path fill-rule="evenodd" clip-rule="evenodd" d="M7.42779 12.2207C6.47385 12.2207 5.70052 12.994 5.70052 13.948C5.70052 14.9019 6.47385 15.6752 7.42779 15.6752C8.38174 15.6752 9.15507 14.9019 9.15507 13.948C9.15507 12.994 8.38174 12.2207 7.42779 12.2207ZM4.06445 17.0384C4.06445 16.4861 4.51217 16.0384 5.06445 16.0384H9.79173C10.344 16.0384 10.7917 16.4861 10.7917 17.0384V19.0384C10.7917 19.5907 10.344 20.0384 9.79173 20.0384H8.97331L8.97331 23.2209C8.97331 23.7732 8.52559 24.2209 7.97331 24.2209H6.8824C6.33011 24.2209 5.8824 23.7732 5.8824 23.2209L5.8824 20.0384H5.06445C4.51217 20.0384 4.06445 19.5907 4.06445 19.0384V17.0384Z" fill="#606060"/>
<path fill-rule="evenodd" clip-rule="evenodd" d="M18.3633 12.2207C17.4094 12.2207 16.6361 12.994 16.6361 13.948C16.6361 14.9019 17.4094 15.6752 18.3633 15.6752C19.3173 15.6752 20.0906 14.9019 20.0906 13.948C20.0906 12.994 19.3173 12.2207 18.3633 12.2207ZM15 17.0384C15 16.4861 15.4477 16.0384 16 16.0384H20.7273C21.2796 16.0384 21.7273 16.4861 21.7273 17.0384V19.0384C21.7273 19.5907 21.2796 20.0384 20.7273 20.0384H19.9089L19.9089 23.2209C19.9089 23.7732 19.4611 24.2209 18.9089 24.2209H17.8179C17.2657 24.2209 16.8179 23.7732 16.8179 23.2209L16.8179 20.0384H16C15.4477 20.0384 15 19.5907 15 19.0384V17.0384Z" fill="#606060"/>
<path fill-rule="evenodd" clip-rule="evenodd" d="M29.2989 12.2207C28.3449 12.2207 27.5716 12.994 27.5716 13.948C27.5716 14.9019 28.3449 15.6752 29.2989 15.6752C30.2528 15.6752 31.0262 14.9019 31.0262 13.948C31.0262 12.994 30.2528 12.2207 29.2989 12.2207ZM25.9355 17.0384C25.9355 16.4861 26.3833 16.0384 26.9355 16.0384H31.6628C32.2151 16.0384 32.6628 16.4861 32.6628 17.0384V19.0384C32.6628 19.5907 32.2151 20.0384 31.6628 20.0384H30.8444L30.8444 23.2209C30.8444 23.7732 30.3967 24.2209 29.8444 24.2209H28.7535C28.2012 24.2209 27.7535 23.7732 27.7535 23.2209L27.7535 20.0384H26.9355C26.3833 20.0384 25.9355 19.5907 25.9355 19.0384V17.0384Z" fill="#606060"/>
<path fill-rule="evenodd" clip-rule="evenodd" d="M12.8946 3.87109C11.9406 3.87109 11.1673 4.64442 11.1673 5.59837C11.1673 6.55231 11.9406 7.32564 12.8946 7.32564C13.8485 7.32564 14.6219 6.55231 14.6219 5.59837C14.6219 4.64442 13.8485 3.87109 12.8946 3.87109ZM9.53125 8.6888C9.53125 8.13652 9.97897 7.6888 10.5312 7.6888H15.2585C15.8108 7.6888 16.2585 8.13652 16.2585 8.6888V10.6888C16.2585 11.2411 15.8108 11.6888 15.2585 11.6888H14.4401L14.4401 14.8713C14.4401 15.4236 13.9924 15.8713 13.4401 15.8713H12.3492C11.7969 15.8713 11.3492 15.4236 11.3492 14.8713L11.3492 11.6888H10.5312C9.97896 11.6888 9.53125 11.2411 9.53125 10.6888V8.6888Z" fill="#606060"/>
<path fill-rule="evenodd" clip-rule="evenodd" d="M23.8301 3.87109C22.8762 3.87109 22.1029 4.64442 22.1029 5.59837C22.1029 6.55231 22.8762 7.32564 23.8301 7.32564C24.7841 7.32564 25.5574 6.55231 25.5574 5.59837C25.5574 4.64442 24.7841 3.87109 23.8301 3.87109ZM20.4668 8.6888C20.4668 8.13652 20.9145 7.6888 21.4668 7.6888H26.1941C26.7464 7.6888 27.1941 8.13652 27.1941 8.6888V10.6888C27.1941 11.2411 26.7464 11.6888 26.1941 11.6888H25.3757L25.3757 14.8713C25.3757 15.4236 24.9279 15.8713 24.3757 15.8713H23.2847C22.7325 15.8713 22.2847 15.4236 22.2847 14.8713L22.2847 11.6888H21.4668C20.9145 11.6888 20.4668 11.2411 20.4668 10.6888V8.6888Z" fill="#606060"/>
</svg>
