<svg xmlns="http://www.w3.org/2000/svg" width="38" height="38" viewBox="0 0 38 38">
    <defs>
        <clipPath id="w419m2r6na">
            <path data-name="사각형 1099" style="fill:#606060" d="M0 0h38v38H0z"/>
        </clipPath>
    </defs>
    <g>
        <rect data-name="사각형 1105" width="38" height="38" rx="4" style="fill:#f1f1f1"/>
        <g data-name="그룹 1677">
            <g data-name="그룹 1676" style="clip-path:url(#w419m2r6na)">
                <g data-name="그룹 1675">
                    <g data-name="그룹 1674" style="clip-path:url(#w419m2r6na)">
                        <path data-name="패스 2369" d="M14.79 8.619a2.124 2.124 0 1 0-2.124-2.124 2.124 2.124 0 0 0 2.124 2.124" style="fill:#606060"/>
                        <path data-name="패스 2370" d="M17.07 9.189h-4.559a1.32 1.32 0 0 0-1.321 1.321v2.181a1.321 1.321 0 0 0 1.321 1.321h.44v3.1a1.347 1.347 0 0 0 1.349 1.343h.985a1.347 1.347 0 0 0 1.347-1.347v-3.1h.44a1.321 1.321 0 0 0 1.321-1.321V10.51a1.32 1.32 0 0 0-1.323-1.321" style="fill:#606060"/>
                        <path data-name="패스 2371" d="M23.21 8.619a2.124 2.124 0 1 0-2.124-2.124 2.124 2.124 0 0 0 2.124 2.124" style="fill:#606060"/>
                        <path data-name="패스 2372" d="M25.489 9.189H20.93a1.32 1.32 0 0 0-1.321 1.321v2.181a1.321 1.321 0 0 0 1.321 1.321h.44v3.1a1.347 1.347 0 0 0 1.347 1.347h.983a1.347 1.347 0 0 0 1.347-1.347v-3.1h.44a1.321 1.321 0 0 0 1.321-1.321V10.51a1.32 1.32 0 0 0-1.321-1.321" style="fill:#606060"/>
                        <path data-name="패스 2373" d="M14.79 23.793a2.124 2.124 0 1 0-2.124-2.124 2.124 2.124 0 0 0 2.124 2.124" style="fill:#606060"/>
                        <path data-name="패스 2374" d="M17.07 24.363h-4.559a1.32 1.32 0 0 0-1.321 1.321v2.181a1.321 1.321 0 0 0 1.321 1.321h.44v3.1a1.347 1.347 0 0 0 1.349 1.343h.985a1.347 1.347 0 0 0 1.347-1.347v-3.1h.44a1.321 1.321 0 0 0 1.321-1.321v-2.177a1.32 1.32 0 0 0-1.321-1.321" style="fill:#606060"/>
                        <path data-name="패스 2375" d="M23.21 23.793a2.124 2.124 0 1 0-2.124-2.124 2.124 2.124 0 0 0 2.124 2.124" style="fill:#606060"/>
                        <path data-name="패스 2376" d="M25.489 24.363H20.93a1.32 1.32 0 0 0-1.321 1.321v2.181a1.321 1.321 0 0 0 1.321 1.321h.44v3.1a1.347 1.347 0 0 0 1.347 1.347h.983a1.347 1.347 0 0 0 1.347-1.347v-3.1h.44a1.321 1.321 0 0 0 1.321-1.321v-2.181a1.32 1.32 0 0 0-1.321-1.321" style="fill:#606060"/>
                    </g>
                </g>
            </g>
        </g>
    </g>
</svg>
