<svg width="38" height="38" viewBox="0 0 38 38" fill="none" xmlns="http://www.w3.org/2000/svg">
<g clip-path="url(#clip0_908_2783)">
<path d="M34 0H4C1.79086 0 0 1.79086 0 4V34C0 36.2091 1.79086 38 4 38H34C36.2091 38 38 36.2091 38 34V4C38 1.79086 36.2091 0 34 0Z" fill="#F1F1F1"/>
<path d="M19 12.705C19.4201 12.705 19.8307 12.5805 20.18 12.3471C20.5293 12.1137 20.8015 11.782 20.9623 11.3939C21.1231 11.0057 21.1651 10.5787 21.0832 10.1667C21.0012 9.75465 20.7989 9.37618 20.5019 9.07914C20.2048 8.78209 19.8264 8.5798 19.4143 8.49784C19.0023 8.41589 18.5753 8.45795 18.1872 8.61871C17.799 8.77947 17.4673 9.05171 17.2339 9.401C17.0005 9.75029 16.876 10.1609 16.876 10.581C16.876 10.86 16.9309 11.1362 17.0377 11.3939C17.1444 11.6515 17.3009 11.8857 17.4981 12.0829C17.6953 12.2802 17.9295 12.4366 18.1872 12.5434C18.4449 12.6501 18.721 12.705 19 12.705" fill="#606060"/>
<path d="M21.2794 13.2754H16.7204C16.5467 13.2754 16.3747 13.3097 16.2143 13.3763C16.0539 13.4428 15.9082 13.5404 15.7856 13.6634C15.663 13.7864 15.5658 13.9324 15.4997 14.093C15.4336 14.2536 15.3999 14.4257 15.4004 14.5994V19.7804C15.4009 20.1302 15.5402 20.4656 15.7877 20.7128C16.0351 20.9601 16.3706 21.0991 16.7204 21.0994H17.1604V28.1994C17.1604 28.3763 17.1952 28.5514 17.2629 28.7149C17.3306 28.8783 17.4298 29.0268 17.5549 29.1519C17.68 29.2769 17.8285 29.3762 17.9919 29.4439C18.1553 29.5116 18.3305 29.5464 18.5074 29.5464H19.4924C19.8496 29.5464 20.1923 29.4045 20.4449 29.1519C20.6975 28.8993 20.8394 28.5566 20.8394 28.1994V21.0994H21.2794C21.453 21.0994 21.6248 21.0652 21.7852 20.9987C21.9455 20.9323 22.0912 20.8349 22.2138 20.7121C22.3365 20.5894 22.4338 20.4436 22.5001 20.2832C22.5665 20.1228 22.6005 19.951 22.6004 19.7774V14.5994C22.6005 14.4259 22.5664 14.254 22.5001 14.0937C22.4338 13.9334 22.3365 13.7877 22.2138 13.665C22.0911 13.5423 21.9454 13.445 21.7851 13.3787C21.6247 13.3123 21.4529 13.2783 21.2794 13.2784" fill="#606060"/>
</g>
<defs>
<clipPath id="clip0_908_2783">
<rect width="38" height="38" fill="white"/>
</clipPath>
</defs>
</svg>
