<svg xmlns="http://www.w3.org/2000/svg" width="38" height="38" viewBox="0 0 38 38">
    <defs>
        <clipPath id="ishzxru0ja">
            <path data-name="사각형 1096" style="fill:#606060" d="M0 0h38v38H0z"/>
        </clipPath>
    </defs>
    <g>
        <rect data-name="사각형 1104" width="38" height="38" rx="4" style="fill:#f1f1f1"/>
        <g data-name="그룹 1670">
            <g data-name="그룹 1669" style="clip-path:url(#ishzxru0ja)">
                <g data-name="그룹 1668">
                    <g data-name="그룹 1667" style="clip-path:url(#ishzxru0ja)">
                        <path data-name="패스 2362" d="M10.58 12.706a2.124 2.124 0 1 0-2.124-2.124 2.124 2.124 0 0 0 2.124 2.124" style="fill:#606060"/>
                        <path data-name="패스 2363" d="M12.86 13.276H8.3A1.32 1.32 0 0 0 6.98 14.6v5.181A1.321 1.321 0 0 0 8.3 21.1h.44v7.1a1.347 1.347 0 0 0 1.347 1.347h.985a1.347 1.347 0 0 0 1.347-1.347v-7.1h.44a1.321 1.321 0 0 0 1.321-1.321V14.6a1.32 1.32 0 0 0-1.321-1.321" style="fill:#606060"/>
                        <path data-name="패스 2364" d="M19 12.706a2.124 2.124 0 1 0-2.124-2.124A2.124 2.124 0 0 0 19 12.706" style="fill:#606060"/>
                        <path data-name="패스 2365" d="M21.279 13.276H16.72A1.32 1.32 0 0 0 15.4 14.6v5.181a1.321 1.321 0 0 0 1.32 1.319h.44v7.1a1.347 1.347 0 0 0 1.347 1.347h.985a1.347 1.347 0 0 0 1.347-1.347v-7.1h.44a1.321 1.321 0 0 0 1.321-1.322V14.6a1.32 1.32 0 0 0-1.321-1.321" style="fill:#606060"/>
                        <path data-name="패스 2366" d="M27.42 12.706a2.124 2.124 0 1 0-2.12-2.124 2.124 2.124 0 0 0 2.124 2.124" style="fill:#606060"/>
                        <path data-name="패스 2367" d="M29.7 13.276h-4.56a1.32 1.32 0 0 0-1.321 1.324v5.181A1.321 1.321 0 0 0 25.14 21.1h.44v7.1a1.347 1.347 0 0 0 1.347 1.347h.985a1.347 1.347 0 0 0 1.347-1.347v-7.1h.44a1.321 1.321 0 0 0 1.321-1.321V14.6a1.32 1.32 0 0 0-1.32-1.324" style="fill:#606060"/>
                    </g>
                </g>
            </g>
        </g>
    </g>
</svg>
