<svg xmlns="http://www.w3.org/2000/svg" width="38" height="38" viewBox="0 0 38 38">
    <defs>
        <clipPath id="ukr3n030za">
            <path data-name="사각형 1093" style="fill:#606060" d="M0 0h38v38H0z"/>
        </clipPath>
    </defs>
    <g>
        <rect data-name="사각형 1103" width="38" height="38" rx="4" style="fill:#f1f1f1"/>
        <g data-name="그룹 1663">
            <g data-name="그룹 1662" style="clip-path:url(#ukr3n030za)">
                <g data-name="그룹 1661">
                    <g data-name="그룹 1660" style="clip-path:url(#ukr3n030za)">
                        <path data-name="패스 2357" d="M14.239 12.706a2.124 2.124 0 1 0-2.124-2.124 2.124 2.124 0 0 0 2.124 2.124" style="fill:#606060"/>
                        <path data-name="패스 2358" d="M16.519 13.276H11.96a1.32 1.32 0 0 0-1.321 1.324v5.181A1.321 1.321 0 0 0 11.96 21.1h.44v7.1a1.347 1.347 0 0 0 1.347 1.347h.985a1.347 1.347 0 0 0 1.347-1.347v-7.1h.44a1.321 1.321 0 0 0 1.321-1.321V14.6a1.32 1.32 0 0 0-1.321-1.321" style="fill:#606060"/>
                        <path data-name="패스 2359" d="M23.761 12.706a2.124 2.124 0 1 0-2.124-2.124 2.124 2.124 0 0 0 2.124 2.124" style="fill:#606060"/>
                        <path data-name="패스 2360" d="M26.04 13.276h-4.559A1.32 1.32 0 0 0 20.16 14.6v5.181a1.321 1.321 0 0 0 1.321 1.319h.44v7.1a1.347 1.347 0 0 0 1.347 1.347h.985a1.347 1.347 0 0 0 1.347-1.352V21.1h.44a1.321 1.321 0 0 0 1.321-1.321V14.6a1.32 1.32 0 0 0-1.321-1.321" style="fill:#606060"/>
                    </g>
                </g>
            </g>
        </g>
    </g>
</svg>
