<svg xmlns="http://www.w3.org/2000/svg" width="38" height="38" viewBox="0 0 38 38">
    <defs>
        <clipPath id="ry5yf5snma">
            <path data-name="사각형 1102" style="fill:#606060" d="M0 0h38v38H0z"/>
        </clipPath>
    </defs>
    <g>
        <rect data-name="사각형 1106" width="38" height="38" rx="4" style="fill:#f1f1f1"/>
        <g data-name="그룹 1684">
            <g data-name="그룹 1683" style="clip-path:url(#ry5yf5snma)">
                <g data-name="그룹 1682">
                    <g data-name="그룹 1681" style="clip-path:url(#ry5yf5snma)">
                        <path data-name="패스 2378" d="M10.776 8.619a2.124 2.124 0 1 0-2.125-2.124 2.124 2.124 0 0 0 2.125 2.124" style="fill:#606060"/>
                        <path data-name="패스 2379" d="M13.055 9.189H8.5a1.32 1.32 0 0 0-1.325 1.321v2.181A1.321 1.321 0 0 0 8.5 14.012h.44v3.1a1.347 1.347 0 0 0 1.347 1.347h.985a1.347 1.347 0 0 0 1.347-1.347v-3.1h.44a1.321 1.321 0 0 0 1.321-1.321V10.51a1.32 1.32 0 0 0-1.321-1.321" style="fill:#606060"/>
                        <path data-name="패스 2380" d="M27.224 8.619A2.124 2.124 0 1 0 25.1 6.495a2.124 2.124 0 0 0 2.124 2.124" style="fill:#606060"/>
                        <path data-name="패스 2381" d="M29.5 9.189h-4.555a1.32 1.32 0 0 0-1.321 1.321v2.181a1.321 1.321 0 0 0 1.321 1.321h.44v3.1a1.347 1.347 0 0 0 1.347 1.347h.985a1.347 1.347 0 0 0 1.347-1.347v-3.1h.44a1.321 1.321 0 0 0 1.321-1.321V10.51A1.32 1.32 0 0 0 29.5 9.189" style="fill:#606060"/>
                        <path data-name="패스 2382" d="M10.776 23.793a2.124 2.124 0 1 0-2.125-2.124 2.124 2.124 0 0 0 2.125 2.124" style="fill:#606060"/>
                        <path data-name="패스 2383" d="M13.055 24.363H8.5a1.32 1.32 0 0 0-1.321 1.321v2.181A1.321 1.321 0 0 0 8.5 29.186h.44v3.1a1.347 1.347 0 0 0 1.347 1.347h.985a1.347 1.347 0 0 0 1.347-1.347v-3.1h.44a1.321 1.321 0 0 0 1.321-1.321v-2.181a1.32 1.32 0 0 0-1.321-1.321" style="fill:#606060"/>
                        <path data-name="패스 2384" d="M27.224 23.793a2.124 2.124 0 1 0-2.124-2.124 2.124 2.124 0 0 0 2.124 2.124" style="fill:#606060"/>
                        <path data-name="패스 2385" d="M29.5 24.363h-4.555a1.32 1.32 0 0 0-1.321 1.321v2.181a1.321 1.321 0 0 0 1.321 1.321h.44v3.1a1.347 1.347 0 0 0 1.347 1.347h.985a1.347 1.347 0 0 0 1.347-1.347v-3.1h.44a1.321 1.321 0 0 0 1.321-1.321v-2.181a1.32 1.32 0 0 0-1.325-1.321" style="fill:#606060"/>
                        <path data-name="패스 2386" d="M19 16.206a2.124 2.124 0 1 0-2.124-2.124A2.124 2.124 0 0 0 19 16.206" style="fill:#606060"/>
                        <path data-name="패스 2387" d="M21.279 16.776H16.72A1.32 1.32 0 0 0 15.4 18.1v2.181a1.321 1.321 0 0 0 1.32 1.319h.44v3.1a1.347 1.347 0 0 0 1.347 1.347h.985a1.347 1.347 0 0 0 1.347-1.347v-3.1h.44a1.321 1.321 0 0 0 1.321-1.322V18.1a1.32 1.32 0 0 0-1.321-1.321" style="fill:#606060"/>
                    </g>
                </g>
            </g>
        </g>
    </g>
</svg>
