<svg width="36" height="36" viewBox="0 0 36 36" fill="none" xmlns="http://www.w3.org/2000/svg">
<rect width="36" height="36" fill="#F1F1F1"/>
<path fill-rule="evenodd" clip-rule="evenodd" d="M9.36334 5C8.40939 5 7.63607 5.77333 7.63607 6.72727C7.63607 7.68122 8.40939 8.45455 9.36334 8.45455C10.3173 8.45455 11.0906 7.68122 11.0906 6.72727C11.0906 5.77333 10.3173 5 9.36334 5ZM6 9.81771C6 9.26542 6.44772 8.81771 7 8.81771H11.7273C12.2796 8.81771 12.7273 9.26542 12.7273 9.81771V11.8177C12.7273 12.37 12.2796 12.8177 11.7273 12.8177H10.9089L10.9089 16.0002C10.9089 16.5525 10.4611 17.0002 9.90885 17.0002H8.81794C8.26566 17.0002 7.81795 16.5525 7.81795 16.0002L7.81795 12.8177H7C6.44771 12.8177 6 12.37 6 11.8177V9.81771Z" fill="#606060"/>
<path fill-rule="evenodd" clip-rule="evenodd" d="M18.3633 5C17.4094 5 16.6361 5.77333 16.6361 6.72727C16.6361 7.68122 17.4094 8.45455 18.3633 8.45455C19.3173 8.45455 20.0906 7.68122 20.0906 6.72727C20.0906 5.77333 19.3173 5 18.3633 5ZM15 9.81771C15 9.26542 15.4477 8.81771 16 8.81771H20.7273C21.2796 8.81771 21.7273 9.26542 21.7273 9.81771V11.8177C21.7273 12.37 21.2796 12.8177 20.7273 12.8177H19.9089L19.9089 16.0002C19.9089 16.5525 19.4611 17.0002 18.9089 17.0002H17.8179C17.2657 17.0002 16.8179 16.5525 16.8179 16.0002L16.8179 12.8177H16C15.4477 12.8177 15 12.37 15 11.8177V9.81771Z" fill="#606060"/>
<path fill-rule="evenodd" clip-rule="evenodd" d="M27.3633 5C26.4094 5 25.6361 5.77333 25.6361 6.72727C25.6361 7.68122 26.4094 8.45455 27.3633 8.45455C28.3173 8.45455 29.0906 7.68122 29.0906 6.72727C29.0906 5.77333 28.3173 5 27.3633 5ZM24 9.81771C24 9.26542 24.4477 8.81771 25 8.81771H29.7273C30.2796 8.81771 30.7273 9.26542 30.7273 9.81771V11.8177C30.7273 12.37 30.2796 12.8177 29.7273 12.8177H28.9089L28.9089 16.0002C28.9089 16.5525 28.4611 17.0002 27.9089 17.0002H26.8179C26.2657 17.0002 25.8179 16.5525 25.8179 16.0002L25.8179 12.8177H25C24.4477 12.8177 24 12.37 24 11.8177V9.81771Z" fill="#606060"/>
<path fill-rule="evenodd" clip-rule="evenodd" d="M9.36334 19C8.40939 19 7.63607 19.7733 7.63607 20.7273C7.63607 21.6812 8.40939 22.4545 9.36334 22.4545C10.3173 22.4545 11.0906 21.6812 11.0906 20.7273C11.0906 19.7733 10.3173 19 9.36334 19ZM6 23.8177C6 23.2654 6.44772 22.8177 7 22.8177H11.7273C12.2796 22.8177 12.7273 23.2654 12.7273 23.8177V25.8177C12.7273 26.37 12.2796 26.8177 11.7273 26.8177H10.9089L10.9089 30.0002C10.9089 30.5525 10.4611 31.0002 9.90885 31.0002H8.81794C8.26566 31.0002 7.81795 30.5525 7.81795 30.0002L7.81795 26.8177H7C6.44771 26.8177 6 26.37 6 25.8177V23.8177Z" fill="#606060"/>
<path fill-rule="evenodd" clip-rule="evenodd" d="M18.3633 19C17.4094 19 16.6361 19.7733 16.6361 20.7273C16.6361 21.6812 17.4094 22.4545 18.3633 22.4545C19.3173 22.4545 20.0906 21.6812 20.0906 20.7273C20.0906 19.7733 19.3173 19 18.3633 19ZM15 23.8177C15 23.2654 15.4477 22.8177 16 22.8177H20.7273C21.2796 22.8177 21.7273 23.2654 21.7273 23.8177V25.8177C21.7273 26.37 21.2796 26.8177 20.7273 26.8177H19.9089L19.9089 30.0002C19.9089 30.5525 19.4611 31.0002 18.9089 31.0002H17.8179C17.2657 31.0002 16.8179 30.5525 16.8179 30.0002L16.8179 26.8177H16C15.4477 26.8177 15 26.37 15 25.8177V23.8177Z" fill="#606060"/>
<path fill-rule="evenodd" clip-rule="evenodd" d="M27.3633 19C26.4094 19 25.6361 19.7733 25.6361 20.7273C25.6361 21.6812 26.4094 22.4545 27.3633 22.4545C28.3173 22.4545 29.0906 21.6812 29.0906 20.7273C29.0906 19.7733 28.3173 19 27.3633 19ZM24 23.8177C24 23.2654 24.4477 22.8177 25 22.8177H29.7273C30.2796 22.8177 30.7273 23.2654 30.7273 23.8177V25.8177C30.7273 26.37 30.2796 26.8177 29.7273 26.8177H28.9089L28.9089 30.0002C28.9089 30.5525 28.4611 31.0002 27.9089 31.0002H26.8179C26.2657 31.0002 25.8179 30.5525 25.8179 30.0002L25.8179 26.8177H25C24.4477 26.8177 24 26.37 24 25.8177V23.8177Z" fill="#606060"/>
</svg>
