<svg xmlns="http://www.w3.org/2000/svg" width="20" height="20" viewBox="0 0 20 20">
    <path data-name="패스 2292" d="M0 0h20v20H0z" style="fill:none"/>
    <path data-name="패스 2293" d="M16.015 12.38v-6.7A1.677 1.677 0 0 0 14.347 4H2.668A1.677 1.677 0 0 0 1 5.676v6.7a1.677 1.677 0 0 0 1.668 1.676h11.679a1.677 1.677 0 0 0 1.668-1.672zm-7.508-.838a2.514 2.514 0 1 1 2.5-2.514 2.5 2.5 0 0 1-2.499 2.514zm10.845-5.028v9.218a1.677 1.677 0 0 1-1.668 1.676H3.5v-1.676h14.184V6.514z" transform="translate(-.176 -.704)" style="fill:#606060"/>
</svg>
