<svg xmlns="http://www.w3.org/2000/svg" width="20" height="20" viewBox="0 0 20 20">
    <path data-name="패스 2280" d="M0 0h20v20H0z" style="fill:none"/>
    <path data-name="패스 2281" d="M10.745 2C7.373 2 4 2.419 4 5.354v7.966a2.946 2.946 0 0 0 2.951 2.935l-1.265 1.257v.419h1.88l1.686-1.677h3.179l1.686 1.677H15.8v-.419l-1.26-1.257a2.946 2.946 0 0 0 2.951-2.935V5.354C17.491 2.419 14.472 2 10.745 2zM6.951 14.578a1.258 1.258 0 1 1 1.265-1.258 1.26 1.26 0 0 1-1.265 1.258zM9.9 8.708H5.686V5.354H9.9zm1.686 0V5.354H15.8v3.354zm2.951 5.87A1.258 1.258 0 1 1 15.8 13.32a1.26 1.26 0 0 1-1.26 1.258z" transform="translate(-.745 -.373)" style="fill:#606060"/>
</svg>
